<?xml version="1.0" encoding="utf-8"?>
<!-- Generator: Adobe Illustrator 28.0.0, SVG Export Plug-In . SVG Version: 6.00 Build 0)  -->
<svg version="1.1" id="Layer_1" xmlns="http://www.w3.org/2000/svg" xmlns:xlink="http://www.w3.org/1999/xlink" x="0px" y="0px"
	 viewBox="0 0 792 504.63" style="enable-background:new 0 0 792 504.63;" xml:space="preserve">
<style type="text/css">
	.st0{fill:#A19DCD;}
	.st1{fill:#DCF0EC;}
</style>
<rect x="0.35" y="0.63" class="st0" width="158.4" height="168"/>
<rect x="0.35" y="168.63" class="st1" width="158.4" height="168"/>
<rect x="0.35" y="336.63" class="st0" width="158.4" height="168"/>
<rect x="158.75" y="0.63" class="st1" width="158.4" height="168"/>
<rect x="158.75" y="168.63" class="st0" width="158.4" height="168"/>
<rect x="158.75" y="336.63" class="st1" width="158.4" height="168"/>
<rect x="317.15" y="0.63" class="st0" width="158.4" height="168"/>
<rect x="317.15" y="168.63" class="st1" width="158.4" height="168"/>
<rect x="317.15" y="336.63" class="st0" width="158.4" height="168"/>
<rect x="475.55" y="0.63" class="st1" width="158.4" height="168"/>
<rect x="475.55" y="168.63" class="st0" width="158.4" height="168"/>
<rect x="475.55" y="336.63" class="st1" width="158.4" height="168"/>
<rect x="475.55" y="336.63" class="st1" width="158.4" height="168"/>
<rect x="633.95" y="0.63" class="st0" width="158.4" height="168"/>
<rect x="633.95" y="168.63" class="st1" width="158.4" height="168"/>
<rect x="633.95" y="336.63" class="st0" width="158.4" height="168"/>
</svg>
