<?xml version="1.0" encoding="utf-8"?>
<!-- Generator: Adobe Illustrator 28.0.0, SVG Export Plug-In . SVG Version: 6.00 Build 0)  -->
<svg version="1.1" id="Layer_1" xmlns="http://www.w3.org/2000/svg" xmlns:xlink="http://www.w3.org/1999/xlink" x="0px" y="0px"
	 viewBox="0 0 762.57 413.48" style="enable-background:new 0 0 762.57 413.48;" xml:space="preserve">
<style type="text/css">
	.st0{fill:#FFFFFF;}
	.st1{fill:none;stroke:#A19DCD;stroke-width:8;stroke-miterlimit:10;}
</style>
<path class="st0" d="M669.22,126.6c1.18-5.89,1.8-11.99,1.8-18.23c0-50.87-41.24-92.1-92.1-92.1c-42.95,0-79.03,29.4-89.22,69.17
	c-10.19-39.77-46.27-69.17-89.22-69.17c-35.59,0-66.46,20.18-81.79,49.73c-11.14-7.22-24.43-11.42-38.69-11.42
	c-13.17,0-25.51,3.57-36.1,9.82c-16.69-23.47-44.11-38.78-75.1-38.78c-50.86,0-92.1,41.24-92.1,92.1c0,3.17,0.16,6.32,0.48,9.41
	c-36.27,12.36-62.35,46.72-62.35,87.19c0,50.86,41.23,92.1,92.1,92.1c3.21,0,6.38-0.17,9.51-0.49
	c9.34,40.97,45.99,71.53,89.78,71.53c32.91,0,61.78-17.25,78.07-43.22c11.8,37.26,46.66,64.27,87.82,64.27
	c39.17,0,72.62-24.45,85.94-58.92c20.98,16.81,47.6,26.87,76.58,26.87c44.1,0,82.75-23.3,104.32-58.25
	c5.88,1.18,11.96,1.8,18.19,1.8c50.87,0,92.1-41.23,92.1-92.1C749.23,171.15,714.37,132.52,669.22,126.6z M489.7,131.29
	c-0.11-0.41-0.21-0.83-0.3-1.24c0.22-0.09,0.45-0.18,0.67-0.27C489.96,130.29,489.83,130.79,489.7,131.29z"/>
<path class="st1" d="M669.22,126.6c1.18-5.89,1.8-11.99,1.8-18.23c0-50.87-41.24-92.1-92.1-92.1c-42.95,0-79.03,29.4-89.22,69.17
	c-10.19-39.77-46.27-69.17-89.22-69.17c-35.59,0-66.46,20.18-81.79,49.73c-11.14-7.22-24.43-11.42-38.69-11.42
	c-13.17,0-25.51,3.57-36.1,9.82c-16.69-23.47-44.11-38.78-75.1-38.78c-50.86,0-92.1,41.24-92.1,92.1c0,3.17,0.16,6.32,0.48,9.41
	c-36.27,12.36-62.35,46.72-62.35,87.19c0,50.86,41.23,92.1,92.1,92.1c3.21,0,6.38-0.17,9.51-0.49
	c9.34,40.97,45.99,71.53,89.78,71.53c32.91,0,61.78-17.25,78.07-43.22c11.8,37.26,46.66,64.27,87.82,64.27
	c39.17,0,72.62-24.45,85.94-58.92c20.98,16.81,47.6,26.87,76.58,26.87c44.1,0,82.75-23.3,104.32-58.25
	c5.88,1.18,11.96,1.8,18.19,1.8c50.87,0,92.1-41.23,92.1-92.1C749.23,171.15,714.37,132.52,669.22,126.6z"/>
</svg>
