<?xml version="1.0" encoding="UTF-8"?>
<svg id="Layer_1" data-name="Layer 1" xmlns="http://www.w3.org/2000/svg" xmlns:xlink="http://www.w3.org/1999/xlink" viewBox="0 0 792 504">
  <defs>
    <style>
      .cls-1 {
        fill: none;
        stroke: #a19dcd;
        stroke-miterlimit: 10;
        stroke-width: 8px;
      }

      .cls-2 {
        fill: #fff;
        filter: url(#drop-shadow-1);
      }

      .cls-2, .cls-3, .cls-4 {
        stroke-width: 0px;
      }

      .cls-3 {
        fill: #dcf0ec;
      }

      .cls-4 {
        fill: #a19dcd;
      }
    </style>
    <filter id="drop-shadow-1" filterUnits="userSpaceOnUse">
      <feOffset dx="7" dy="7"/>
      <feGaussianBlur result="blur" stdDeviation="5"/>
      <feFlood flood-color="#a19dcd" flood-opacity=".75"/>
      <feComposite in2="blur" operator="in"/>
      <feComposite in="SourceGraphic"/>
    </filter>
  </defs>
  <rect class="cls-4" width="158.4" height="168"/>
  <rect class="cls-3" y="168" width="158.4" height="168"/>
  <rect class="cls-4" y="336" width="158.4" height="168"/>
  <rect class="cls-3" x="158.4" y="0" width="158.4" height="168"/>
  <rect class="cls-4" x="158.4" y="168" width="158.4" height="168"/>
  <rect class="cls-3" x="158.4" y="336" width="158.4" height="168"/>
  <rect class="cls-4" x="316.8" y="0" width="158.4" height="168"/>
  <rect class="cls-3" x="316.8" y="168" width="158.4" height="168"/>
  <rect class="cls-4" x="316.8" y="336" width="158.4" height="168"/>
  <rect class="cls-3" x="475.2" y="0" width="158.4" height="168"/>
  <rect class="cls-4" x="475.2" y="168" width="158.4" height="168"/>
  <rect class="cls-3" x="475.2" y="336" width="158.4" height="168"/>
  <rect class="cls-3" x="475.2" y="336" width="158.4" height="168"/>
  <rect class="cls-4" x="633.6" y="0" width="158.4" height="168"/>
  <rect class="cls-3" x="633.6" y="168" width="158.4" height="168"/>
  <rect class="cls-4" x="633.6" y="336" width="158.4" height="168"/>
  <g>
    <path class="cls-2" d="m683.2,173.21c1.18-5.89,1.8-11.99,1.8-18.23,0-50.87-41.24-92.1-92.1-92.1-42.95,0-79.03,29.4-89.22,69.17-10.19-39.77-46.27-69.17-89.22-69.17-35.59,0-66.46,20.18-81.79,49.73-11.14-7.22-24.43-11.42-38.69-11.42-13.17,0-25.51,3.57-36.1,9.82-16.69-23.47-44.11-38.78-75.1-38.78-50.86,0-92.1,41.24-92.1,92.1,0,3.17.16,6.32.48,9.41-36.27,12.36-62.35,46.72-62.35,87.19,0,50.86,41.23,92.1,92.1,92.1,3.21,0,6.38-.17,9.51-.49,9.34,40.97,45.99,71.53,89.78,71.53,32.91,0,61.78-17.25,78.07-43.22,11.8,37.26,46.66,64.27,87.82,64.27s72.62-24.45,85.94-58.92c20.98,16.81,47.6,26.87,76.58,26.87,44.1,0,82.75-23.3,104.32-58.25,5.88,1.18,11.96,1.8,18.19,1.8,50.87,0,92.1-41.23,92.1-92.1,0-46.76-34.85-85.39-80.01-91.31Zm-179.52,4.7c-.11-.41-.21-.83-.3-1.24.22-.09.45-.18.67-.27-.12.51-.24,1.01-.37,1.51Z"/>
    <path class="cls-1" d="m683.2,173.21c1.18-5.89,1.8-11.99,1.8-18.23,0-50.87-41.24-92.1-92.1-92.1-42.95,0-79.03,29.4-89.22,69.17-10.19-39.77-46.27-69.17-89.22-69.17-35.59,0-66.46,20.18-81.79,49.73-11.14-7.22-24.43-11.42-38.69-11.42-13.17,0-25.51,3.57-36.1,9.82-16.69-23.47-44.11-38.78-75.1-38.78-50.86,0-92.1,41.24-92.1,92.1,0,3.17.16,6.32.48,9.41-36.27,12.36-62.35,46.72-62.35,87.19,0,50.86,41.23,92.1,92.1,92.1,3.21,0,6.38-.17,9.51-.49,9.34,40.97,45.99,71.53,89.78,71.53,32.91,0,61.78-17.25,78.07-43.22,11.8,37.26,46.66,64.27,87.82,64.27s72.62-24.45,85.94-58.92c20.98,16.81,47.6,26.87,76.58,26.87,44.1,0,82.75-23.3,104.32-58.25,5.88,1.18,11.96,1.8,18.19,1.8,50.87,0,92.1-41.23,92.1-92.1,0-46.76-34.85-85.39-80.01-91.31Z"/>
  </g>
</svg>