<?xml version="1.0" encoding="utf-8"?>
<!-- Generator: Adobe Illustrator 28.0.0, SVG Export Plug-In . SVG Version: 6.00 Build 0)  -->
<svg version="1.1" id="Layer_1" xmlns="http://www.w3.org/2000/svg" xmlns:xlink="http://www.w3.org/1999/xlink" x="0px" y="0px"
	 viewBox="0 0 144 144" style="enable-background:new 0 0 144 144;" xml:space="preserve">
<style type="text/css">
	.st0{fill:#C49A6C;}
	.st1{fill:#EE2A7B;}
	.st2{fill:#FFFFFF;}
	.st3{fill:#27AAE1;}
	.st4{fill:#FBB040;}
</style>
<circle class="st0" cx="72" cy="72" r="65.44"/>
<g>
	<path class="st1" d="M11.36,69.69c-0.26,0.51,1.73,5.86,1.67,6.44c-0.76,8.09-1.64,6.11,3.28,12.93c1.72,2.38,3.9,4.7,6.73,5.39
		c2.25,0.55,4.56-0.03,6.85-0.1c2.29-0.07,4.96,0.61,6.04,2.67c0.59,1.13,0.57,2.44,0.72,3.69c0.36,2.91,1.74,5.64,3.11,8.29
		c1.81,3.53,3.66,7.1,6.28,10.11c2.62,3.01,6.15,5.46,10.05,5.98c3.52,0.47,6.97,8.37,10.27,7.28c5.77-1.91,11.6-3.84,16.74-6.99
		c2.95-1.81,5.72-4.03,9.09-4.97c2.66-0.74,5.51-0.63,8.28-0.84c12.8-0.97,24.34-18.54,28.76-30.32c1.66-4.43,2.21-9.88-0.8-13.78
		c-1.6-2.06-3.97-3.39-5.77-5.29c-2.25-2.37-3.5-5.64-3.37-8.81c0.12-3.02,1.43-5.87,1.39-8.9c-0.03-2.3-0.84-4.55-1.74-6.72
		c-1.8-4.36-3.99-8.58-6.53-12.59c-0.93-1.47-3.69-2.13-3.45-3.86c0.39-2.86-2.79-8.05-4.26-8.24c-6.12-0.82-12.31-0.72-18.31,0.3
		c-3.67,0.62-7.46,1.57-11.12,0.54c-3.84-1.08-6.9-4.18-10.68-5.46c-3.26-1.1-6.75-0.75-10.11-0.38c-2.54,0.28-5.1,0.56-7.5,1.36
		c-2.47,0.82-4.72,2.18-6.71,3.82c-9.66,7.93-13.02,28.7-22.83,36.45c-1.62,1.28-3.57,3.05-3.69,4.9c-0.1,1.53-0.35,3.06-1.04,4.43
		L11.36,69.69z"/>
	<g>
		<path class="st1" d="M8.89,69.01c-0.56,1.84,0.72,4.41,1.25,6.14c0.12,0.38,0.2,0.77,0.33,1.15c0.19,0.56-0.13-0.22,0-0.2
			c0.02,0-0.11,1.12-0.12,1.23c-0.13,1.22-0.31,2.43-0.42,3.65c-0.16,1.85,0.19,3.53,1.16,5.12c1.51,2.49,3.37,5.07,5.39,7.17
			c2.71,2.81,6.08,4.21,9.99,3.93c2.03-0.15,6.57-1.21,7.37,1.49c0.25,0.86,0.23,1.82,0.36,2.71c0.14,0.95,0.34,1.87,0.64,2.78
			c0.62,1.91,1.51,3.73,2.42,5.52c1.78,3.49,3.59,6.94,6,10.03c2.24,2.87,5.09,5.33,8.46,6.76c0.77,0.33,1.54,0.62,2.35,0.82
			c0.45,0.11,0.9,0.17,1.35,0.26c0.13,0.03,0.71,0.2,0.51,0.11c-0.23-0.1,0.31,0.19,0.4,0.25c0.33,0.2,0.19,0.12,0.29,0.21
			c0.5,0.42,0.96,0.89,1.4,1.36c1.71,1.81,3.29,4.05,5.64,5.07c1.37,0.6,2.64,0.54,4.05,0.07c1.88-0.62,3.75-1.25,5.61-1.93
			c3.68-1.34,7.33-2.86,10.7-4.87c3.02-1.8,5.83-4.21,9.31-5.06c3.42-0.83,7.02-0.29,10.46-1.15c2.71-0.68,5.31-1.97,7.6-3.55
			c5.19-3.56,9.34-8.45,12.83-13.64c3.26-4.85,6.28-10.3,7.98-15.93c1-3.31,1.37-7,0.4-10.36c-1.06-3.66-3.62-5.89-6.44-8.24
			c-2.56-2.14-4.38-4.89-4.3-8.34c0.04-1.87,0.65-3.68,1-5.51c0.41-2.14,0.49-4.18,0.08-6.33c-0.75-3.91-2.75-7.77-4.55-11.29
			c-1.64-3.2-3.24-6.78-6.23-8.9c-0.15-0.11-0.54-0.38-0.56-0.39c-0.05-0.04-0.28-0.28-0.28-0.27c-0.02,0.02,0.18,1.17,0.25,0.2
			c0.02-0.3,0-0.6-0.03-0.9c-0.15-1.57-0.67-3.02-1.34-4.44c-1.16-2.45-2.87-4.9-5.71-5.26c-4.17-0.54-8.39-0.66-12.58-0.34
			c-4.03,0.3-7.97,1.4-11.99,1.63c-1.79,0.11-3.53-0.05-5.19-0.76c-1.6-0.69-3.05-1.7-4.53-2.6c-3.45-2.12-6.98-3.31-11.07-3.25
			c-3.91,0.06-8.18,0.48-11.95,1.54c-3.54,1-6.83,2.96-9.52,5.46c-4.02,3.73-6.61,8.87-8.93,13.76c-2.46,5.18-4.62,10.54-7.61,15.45
			c-1.34,2.2-2.62,3.99-4.52,5.72c-1.12,1.02-2.37,1.87-3.35,3.04c-1.34,1.6-1.86,3.06-2.09,5.1C10.92,65.15,10,66.7,9.14,68.4
			c-1.49,2.94,2.93,5.53,4.43,2.59c0.92-1.81,1.99-3.62,2.4-5.64c0.29-1.45,0.08-2.62,1.01-3.75c0.95-1.16,2.24-1.98,3.33-2.99
			c3.87-3.58,6.42-8.46,8.67-13.16c2.38-4.95,4.45-10.06,7.17-14.83c2.66-4.67,6.12-8.93,11.52-10.73
			c3.45-1.15,7.36-1.49,10.98-1.61c1.8-0.06,3.54,0.07,5.27,0.64c1.56,0.51,2.98,1.47,4.37,2.33c3.06,1.9,6.09,3.47,9.76,3.65
			c3.93,0.2,7.8-1.01,11.69-1.45c4.01-0.45,8.06-0.49,12.08-0.15c0.71,0.06,1.89,0.26,2.34,0.25c-0.29,0-0.33-0.06-0.43-0.23
			c0.09,0.16,0.35,0.33,0.47,0.47c0.57,0.62,1.32,1.86,1.76,2.95c0.13,0.32,0.32,0.96,0.42,1.41c0.18,0.8,0.03-0.36,0.06,0.4
			c0.01,0.25-0.03,0.49-0.03,0.74c0.02,1.81,0.93,3.02,2.33,4.07c1.07,0.8,1.38,0.93,1.96,1.86c1.04,1.69,2.03,3.42,2.95,5.18
			c1.71,3.27,3.56,6.81,4.31,10.45c0.75,3.66-1.2,7.23-1.22,10.9c-0.02,3.65,1.45,7.21,3.85,9.93c2.14,2.42,5.53,3.9,6.82,7.03
			c2.07,5.03-0.82,10.89-3.02,15.26c-2.6,5.18-5.78,10.14-9.72,14.42c-3.43,3.73-7.62,7.22-12.53,8.35
			c-3.03,0.7-6.83,0.27-10.17,1.08c-3.52,0.86-6.44,3-9.45,4.9c-3.12,1.98-6.47,3.5-9.93,4.79c-1.71,0.64-3.44,1.23-5.17,1.8
			c-0.43,0.14-0.87,0.29-1.3,0.43c-0.14,0.05-0.29,0.1-0.43,0.14c-0.29,0.07-0.25,0.08,0.11,0.01c-0.51-0.3,0.49,0.25-0.09-0.02
			c-0.27-0.09-0.26-0.09,0.03,0.02c-0.13-0.07-0.26-0.15-0.39-0.23c-0.61-0.48,0.37,0.35-0.26-0.19c-0.2-0.17-0.4-0.35-0.59-0.54
			c-0.41-0.39-0.8-0.81-1.18-1.23c-0.79-0.86-1.55-1.76-2.39-2.58c-0.81-0.79-1.71-1.55-2.73-2.04c-1.42-0.67-3.01-0.68-4.46-1.3
			c-6.4-2.73-9.68-9.85-12.58-15.71c-0.76-1.54-1.43-3.1-1.81-4.78c-0.42-1.89-0.25-3.85-1.21-5.6c-1.55-2.82-4.87-3.94-7.93-3.95
			c-1.79,0-3.57,0.4-5.36,0.34c-1.51-0.05-2.8-0.69-3.93-1.67c-2.06-1.8-3.72-4.3-5.19-6.59c-0.21-0.32-0.37-0.68-0.59-1
			c-0.31-0.46,0.14,0.53,0,0.02c-0.04-0.14-0.08-0.29-0.13-0.43c-0.09-0.24,0.01-0.6,0,0.09c0-0.16-0.03-0.32-0.02-0.47
			c0.01-0.44,0.03-0.88,0.08-1.31c0.22-2.22,0.78-4.37,0.13-6.55c-0.28-0.97-0.6-1.92-0.89-2.89c-0.13-0.44-0.26-0.88-0.37-1.33
			c-0.04-0.17-0.06-0.34-0.11-0.51c0.11,0.37,0.12,0.44-0.01,0.87C14.79,67.21,9.84,65.86,8.89,69.01z"/>
	</g>
</g>
<circle class="st2" cx="72" cy="72" r="22.19"/>
<path class="st3" d="M49.02,38.76L49.02,38.76c-0.43,0-0.79-0.35-0.79-0.79V23.57c0-0.43,0.35-0.79,0.79-0.79l0,0
	c0.43,0,0.79,0.35,0.79,0.79v14.41C49.81,38.41,49.45,38.76,49.02,38.76z"/>
<path class="st3" d="M75.29,39.34L75.29,39.34c-0.31,0.31-0.81,0.31-1.11,0L63.99,29.15c-0.31-0.31-0.31-0.81,0-1.11v0
	c0.31-0.31,0.81-0.31,1.11,0l10.19,10.19C75.6,38.53,75.6,39.03,75.29,39.34z"/>
<path class="st3" d="M53.91,101.5L53.91,101.5c-0.15,0.41-0.6,0.62-1,0.48l-13.57-4.85c-0.41-0.15-0.62-0.6-0.48-1h0
	c0.15-0.41,0.6-0.62,1-0.48l13.57,4.85C53.84,100.64,54.05,101.09,53.91,101.5z"/>
<path class="st3" d="M102.97,70.73L102.97,70.73c-0.36-0.24-0.45-0.74-0.2-1.09l8.16-11.88c0.24-0.36,0.74-0.45,1.09-0.2h0
	c0.36,0.24,0.45,0.74,0.2,1.09l-8.16,11.88C103.81,70.88,103.32,70.97,102.97,70.73z"/>
<path class="st3" d="M96.14,112.45L96.14,112.45c-0.31,0.31-0.81,0.31-1.11,0l-10.19-10.19c-0.31-0.31-0.31-0.81,0-1.11l0,0
	c0.31-0.31,0.81-0.31,1.11,0l10.19,10.19C96.45,111.64,96.45,112.14,96.14,112.45z"/>
<path class="st3" d="M22.5,86.32l-0.03-0.02c-0.37-0.21-0.49-0.68-0.28-1.05l6.83-11.83c0.21-0.37,0.68-0.49,1.05-0.28l0.03,0.02
	c0.37,0.21,0.49,0.68,0.28,1.05l-6.83,11.83C23.34,86.41,22.87,86.53,22.5,86.32z"/>
<path class="st3" d="M72,122.78L72,122.78c-0.43,0-0.79-0.35-0.79-0.79v-14.41c0-0.43,0.35-0.79,0.79-0.79l0,0
	c0.43,0,0.79,0.35,0.79,0.79V122C72.79,122.43,72.43,122.78,72,122.78z"/>
<path class="st3" d="M110.58,96.11L110.58,96.11c-0.43,0-0.79-0.35-0.79-0.79V80.91c0-0.43,0.35-0.79,0.79-0.79l0,0
	c0.43,0,0.79,0.35,0.79,0.79v14.41C111.36,95.75,111.01,96.11,110.58,96.11z"/>
<path class="st3" d="M100.42,50.3L100.42,50.3c-0.43,0-0.79-0.35-0.79-0.79V35.1c0-0.43,0.35-0.79,0.79-0.79l0,0
	c0.43,0,0.79,0.35,0.79,0.79v14.41C101.21,49.94,100.85,50.3,100.42,50.3z"/>
<path class="st3" d="M33.84,51.81L33.84,51.81c0.42-0.11,0.85,0.14,0.96,0.56l3.72,13.92c0.11,0.42-0.14,0.85-0.56,0.96h0
	c-0.42,0.11-0.85-0.14-0.96-0.56l-3.72-13.92C33.17,52.35,33.42,51.92,33.84,51.81z"/>
<path class="st4" d="M83.66,25.97L83.66,25.97c0.42-0.11,0.85,0.14,0.96,0.56l3.72,13.92c0.11,0.42-0.14,0.85-0.56,0.96h0
	c-0.42,0.11-0.85-0.14-0.96-0.56L83.1,26.93C82.99,26.51,83.24,26.08,83.66,25.97z"/>
<path class="st4" d="M63.08,46.91L63.08,46.91c-0.02,0.43-0.39,0.77-0.82,0.75l-14.39-0.72c-0.43-0.02-0.77-0.39-0.75-0.82l0,0
	c0.02-0.43,0.39-0.77,0.82-0.75l14.39,0.72C62.76,46.11,63.1,46.48,63.08,46.91z"/>
<path class="st4" d="M116.64,65.63L116.64,65.63c0.42-0.11,0.85,0.14,0.96,0.56l3.72,13.92c0.11,0.42-0.14,0.85-0.56,0.96h0
	c-0.42,0.11-0.85-0.14-0.96-0.56l-3.72-13.92C115.97,66.17,116.22,65.74,116.64,65.63z"/>
<path class="st4" d="M17.82,59.55L17.82,59.55c0.42-0.11,0.85,0.14,0.96,0.56l3.72,13.92c0.11,0.42-0.14,0.85-0.56,0.96l0,0
	c-0.42,0.11-0.85-0.14-0.96-0.56l-3.72-13.92C17.15,60.1,17.4,59.67,17.82,59.55z"/>
<path class="st4" d="M39.58,73.31L39.58,73.31c0.42-0.11,0.85,0.14,0.96,0.56l3.72,13.92c0.11,0.42-0.14,0.85-0.56,0.96h0
	c-0.42,0.11-0.85-0.14-0.96-0.56l-3.72-13.92C38.91,73.86,39.16,73.42,39.58,73.31z"/>
<path class="st4" d="M50.39,107.07L50.39,107.07c0.42-0.11,0.85,0.14,0.96,0.56l3.72,13.92c0.11,0.42-0.14,0.85-0.56,0.96l0,0
	c-0.42,0.11-0.85-0.14-0.96-0.56l-3.72-13.92C49.72,107.61,49.97,107.18,50.39,107.07z"/>
<path class="st4" d="M91.67,96.22L91.67,96.22c-0.28-0.33-0.24-0.83,0.09-1.11l11-9.31c0.33-0.28,0.83-0.24,1.11,0.09l0,0
	c0.28,0.33,0.24,0.83-0.09,1.11l-11,9.31C92.45,96.59,91.95,96.55,91.67,96.22z"/>
<path class="st4" d="M43.37,37.14L43.37,37.14c0.28,0.33,0.24,0.83-0.09,1.11l-11,9.31c-0.33,0.28-0.83,0.24-1.11-0.09l0,0
	c-0.28-0.33-0.24-0.83,0.09-1.11l11-9.31C42.59,36.77,43.09,36.81,43.37,37.14z"/>
</svg>
